<svg preserveAspectRatio="none" viewBox="0 0 765 483" fill="none" xmlns="http://www.w3.org/2000/svg">
<mask id="mask0_1_14" style="mask-type:luminance" maskUnits="userSpaceOnUse" x="0" y="0" width="766" height="483">
<path d="M651.62 0.390015H113.76C51.1364 0.390015 0.369995 51.1565 0.369995 113.78V369.4C0.369995 432.024 51.1364 482.79 113.76 482.79H651.62C714.244 482.79 765.01 432.024 765.01 369.4V113.78C765.01 51.1565 714.244 0.390015 651.62 0.390015Z" fill="white"/>
</mask>
<g mask="url(#mask0_1_14)">
<path d="M-321.47 1.35999H1114.84" stroke="#53B75F" stroke-width="3" stroke-miterlimit="10"/>
<path d="M-321.47 38.3199H1114.84" stroke="#53B75F" stroke-width="3" stroke-miterlimit="10"/>
<path d="M-321.47 75.28H1114.84" stroke="#53B75F" stroke-width="3" stroke-miterlimit="10"/>
<path d="M-321.47 112.24H1114.84" stroke="#53B75F" stroke-width="3" stroke-miterlimit="10"/>
<path d="M-321.47 149.2H1114.84" stroke="#53B75F" stroke-width="3" stroke-miterlimit="10"/>
<path d="M-321.47 186.16H1114.84" stroke="#53B75F" stroke-width="3" stroke-miterlimit="10"/>
<path d="M-321.47 223.11H1114.84" stroke="#53B75F" stroke-width="3" stroke-miterlimit="10"/>
<path d="M-321.47 260.07H1114.84" stroke="#53B75F" stroke-width="3" stroke-miterlimit="10"/>
<path d="M-321.47 297.03H1114.84" stroke="#53B75F" stroke-width="3" stroke-miterlimit="10"/>
<path d="M-321.47 333.99H1114.84" stroke="#53B75F" stroke-width="3" stroke-miterlimit="10"/>
<path d="M-321.47 370.95H1114.84" stroke="#53B75F" stroke-width="3" stroke-miterlimit="10"/>
<path d="M-321.47 407.91H1114.84" stroke="#53B75F" stroke-width="3" stroke-miterlimit="10"/>
<path d="M-321.47 444.87H1114.84" stroke="#53B75F" stroke-width="3" stroke-miterlimit="10"/>
<path d="M-321.47 481.83H1114.84" stroke="#53B75F" stroke-width="3" stroke-miterlimit="10"/>
<path d="M741.77 -583.62L1459.93 660.26" stroke="#53B75F" stroke-width="3" stroke-miterlimit="10"/>
<path d="M709.77 -565.14L1427.92 678.74" stroke="#53B75F" stroke-width="3" stroke-miterlimit="10"/>
<path d="M677.76 -546.66L1395.91 697.22" stroke="#53B75F" stroke-width="3" stroke-miterlimit="10"/>
<path d="M645.75 -528.18L1363.91 715.7" stroke="#53B75F" stroke-width="3" stroke-miterlimit="10"/>
<path d="M613.74 -509.7L1331.9 734.18" stroke="#53B75F" stroke-width="3" stroke-miterlimit="10"/>
<path d="M581.74 -491.22L1299.89 752.66" stroke="#53B75F" stroke-width="3" stroke-miterlimit="10"/>
<path d="M549.73 -472.74L1267.88 771.14" stroke="#53B75F" stroke-width="3" stroke-miterlimit="10"/>
<path d="M517.72 -454.26L1235.88 789.62" stroke="#53B75F" stroke-width="3" stroke-miterlimit="10"/>
<path d="M485.71 -435.79L1203.87 808.1" stroke="#53B75F" stroke-width="3" stroke-miterlimit="10"/>
<path d="M453.7 -417.31L1171.86 826.58" stroke="#53B75F" stroke-width="3" stroke-miterlimit="10"/>
<path d="M421.7 -398.83L1139.85 845.06" stroke="#53B75F" stroke-width="3" stroke-miterlimit="10"/>
<path d="M389.69 -380.35L1107.85 863.54" stroke="#53B75F" stroke-width="3" stroke-miterlimit="10"/>
<path d="M357.68 -361.87L1075.84 882.01" stroke="#53B75F" stroke-width="3" stroke-miterlimit="10"/>
<path d="M325.67 -343.39L1043.83 900.49" stroke="#53B75F" stroke-width="3" stroke-miterlimit="10"/>
<path d="M293.67 -324.91L1011.82 918.97" stroke="#53B75F" stroke-width="3" stroke-miterlimit="10"/>
<path d="M261.66 -306.43L979.81 937.45" stroke="#53B75F" stroke-width="3" stroke-miterlimit="10"/>
<path d="M229.65 -287.95L947.81 955.93" stroke="#53B75F" stroke-width="3" stroke-miterlimit="10"/>
<path d="M197.64 -269.47L915.8 974.41" stroke="#53B75F" stroke-width="3" stroke-miterlimit="10"/>
<path d="M165.64 -250.99L883.79 992.89" stroke="#53B75F" stroke-width="3" stroke-miterlimit="10"/>
<path d="M133.63 -232.51L851.78 1011.37" stroke="#53B75F" stroke-width="3" stroke-miterlimit="10"/>
<path d="M101.62 -214.03L819.78 1029.85" stroke="#53B75F" stroke-width="3" stroke-miterlimit="10"/>
<path d="M69.61 -195.55L787.77 1048.33" stroke="#53B75F" stroke-width="3" stroke-miterlimit="10"/>
<path d="M37.61 -177.07L755.76 1066.81" stroke="#53B75F" stroke-width="3" stroke-miterlimit="10"/>
<path d="M5.59998 -158.59L723.75 1085.29" stroke="#53B75F" stroke-width="3" stroke-miterlimit="10"/>
<path d="M-26.41 -140.11L691.75 1103.77" stroke="#53B75F" stroke-width="3" stroke-miterlimit="10"/>
<path d="M-58.42 -121.63L659.74 1122.25" stroke="#53B75F" stroke-width="3" stroke-miterlimit="10"/>
<path d="M-90.4301 -103.15L627.73 1140.73" stroke="#53B75F" stroke-width="3" stroke-miterlimit="10"/>
<path d="M-122.43 -84.67L595.72 1159.21" stroke="#53B75F" stroke-width="3" stroke-miterlimit="10"/>
<path d="M-154.44 -66.19L563.71 1177.69" stroke="#53B75F" stroke-width="3" stroke-miterlimit="10"/>
<path d="M-186.45 -47.71L531.71 1196.17" stroke="#53B75F" stroke-width="3" stroke-miterlimit="10"/>
<path d="M-218.46 -29.23L499.7 1214.65" stroke="#53B75F" stroke-width="3" stroke-miterlimit="10"/>
<path d="M-250.46 -10.75L467.69 1233.13" stroke="#53B75F" stroke-width="3" stroke-miterlimit="10"/>
<path d="M-282.47 7.72998L435.68 1251.61" stroke="#53B75F" stroke-width="3" stroke-miterlimit="10"/>
<path d="M-314.48 26.21L403.68 1270.09" stroke="#53B75F" stroke-width="3" stroke-miterlimit="10"/>
<path d="M-346.49 44.6899L371.67 1288.57" stroke="#53B75F" stroke-width="3" stroke-miterlimit="10"/>
<path d="M-378.49 63.16L339.66 1307.05" stroke="#53B75F" stroke-width="3" stroke-miterlimit="10"/>
<path d="M-410.5 81.64L307.65 1325.53" stroke="#53B75F" stroke-width="3" stroke-miterlimit="10"/>
<path d="M-442.51 100.12L275.65 1344.01" stroke="#53B75F" stroke-width="3" stroke-miterlimit="10"/>
<path d="M-474.52 118.6L243.64 1362.49" stroke="#53B75F" stroke-width="3" stroke-miterlimit="10"/>
<path d="M-506.52 137.08L211.63 1380.96" stroke="#53B75F" stroke-width="3" stroke-miterlimit="10"/>
<path d="M-538.53 155.56L179.62 1399.44" stroke="#53B75F" stroke-width="3" stroke-miterlimit="10"/>
<path d="M-570.54 174.04L147.62 1417.92" stroke="#53B75F" stroke-width="3" stroke-miterlimit="10"/>
<path d="M-602.55 192.52L115.61 1436.4" stroke="#53B75F" stroke-width="3" stroke-miterlimit="10"/>
<path d="M-634.56 211L83.6 1454.88" stroke="#53B75F" stroke-width="3" stroke-miterlimit="10"/>
<path d="M-666.56 229.48L51.59 1473.36" stroke="#53B75F" stroke-width="3" stroke-miterlimit="10"/>
<path d="M-698.57 247.96L19.58 1491.84" stroke="#53B75F" stroke-width="3" stroke-miterlimit="10"/>
<path d="M-698.57 641.78L19.58 -602.1" stroke="#53B75F" stroke-width="3" stroke-miterlimit="10"/>
<path d="M-666.56 660.26L51.59 -583.62" stroke="#53B75F" stroke-width="3" stroke-miterlimit="10"/>
<path d="M-634.56 678.74L83.6 -565.14" stroke="#53B75F" stroke-width="3" stroke-miterlimit="10"/>
<path d="M-602.55 697.22L115.61 -546.66" stroke="#53B75F" stroke-width="3" stroke-miterlimit="10"/>
<path d="M-570.54 715.7L147.62 -528.18" stroke="#53B75F" stroke-width="3" stroke-miterlimit="10"/>
<path d="M-538.53 734.18L179.62 -509.7" stroke="#53B75F" stroke-width="3" stroke-miterlimit="10"/>
<path d="M-506.52 752.66L211.63 -491.22" stroke="#53B75F" stroke-width="3" stroke-miterlimit="10"/>
<path d="M-474.52 771.14L243.64 -472.74" stroke="#53B75F" stroke-width="3" stroke-miterlimit="10"/>
<path d="M-442.51 789.62L275.65 -454.26" stroke="#53B75F" stroke-width="3" stroke-miterlimit="10"/>
<path d="M-410.5 808.1L307.65 -435.79" stroke="#53B75F" stroke-width="3" stroke-miterlimit="10"/>
<path d="M-378.49 826.58L339.66 -417.31" stroke="#53B75F" stroke-width="3" stroke-miterlimit="10"/>
<path d="M-346.49 845.06L371.67 -398.83" stroke="#53B75F" stroke-width="3" stroke-miterlimit="10"/>
<path d="M-314.48 863.54L403.68 -380.35" stroke="#53B75F" stroke-width="3" stroke-miterlimit="10"/>
<path d="M-282.47 882.01L435.68 -361.87" stroke="#53B75F" stroke-width="3" stroke-miterlimit="10"/>
<path d="M-250.46 900.49L467.69 -343.39" stroke="#53B75F" stroke-width="3" stroke-miterlimit="10"/>
<path d="M-218.46 918.97L499.7 -324.91" stroke="#53B75F" stroke-width="3" stroke-miterlimit="10"/>
<path d="M-186.45 937.45L531.71 -306.43" stroke="#53B75F" stroke-width="3" stroke-miterlimit="10"/>
<path d="M-154.44 955.93L563.71 -287.95" stroke="#53B75F" stroke-width="3" stroke-miterlimit="10"/>
<path d="M-122.43 974.41L595.72 -269.47" stroke="#53B75F" stroke-width="3" stroke-miterlimit="10"/>
<path d="M-90.4301 992.89L627.73 -250.99" stroke="#53B75F" stroke-width="3" stroke-miterlimit="10"/>
<path d="M-58.42 1011.37L659.74 -232.51" stroke="#53B75F" stroke-width="3" stroke-miterlimit="10"/>
<path d="M-26.41 1029.85L691.75 -214.03" stroke="#53B75F" stroke-width="3" stroke-miterlimit="10"/>
<path d="M5.59998 1048.33L723.75 -195.55" stroke="#53B75F" stroke-width="3" stroke-miterlimit="10"/>
<path d="M37.61 1066.81L755.76 -177.07" stroke="#53B75F" stroke-width="3" stroke-miterlimit="10"/>
<path d="M69.61 1085.29L787.77 -158.59" stroke="#53B75F" stroke-width="3" stroke-miterlimit="10"/>
<path d="M101.62 1103.77L819.78 -140.11" stroke="#53B75F" stroke-width="3" stroke-miterlimit="10"/>
<path d="M133.63 1122.25L851.78 -121.63" stroke="#53B75F" stroke-width="3" stroke-miterlimit="10"/>
<path d="M165.64 1140.73L883.79 -103.15" stroke="#53B75F" stroke-width="3" stroke-miterlimit="10"/>
<path d="M197.64 1159.21L915.8 -84.67" stroke="#53B75F" stroke-width="3" stroke-miterlimit="10"/>
<path d="M229.65 1177.69L947.81 -66.19" stroke="#53B75F" stroke-width="3" stroke-miterlimit="10"/>
<path d="M261.66 1196.17L979.81 -47.71" stroke="#53B75F" stroke-width="3" stroke-miterlimit="10"/>
<path d="M293.67 1214.65L1011.82 -29.23" stroke="#53B75F" stroke-width="3" stroke-miterlimit="10"/>
<path d="M325.67 1233.13L1043.83 -10.75" stroke="#53B75F" stroke-width="3" stroke-miterlimit="10"/>
<path d="M357.68 1251.61L1075.84 7.72998" stroke="#53B75F" stroke-width="3" stroke-miterlimit="10"/>
<path d="M389.69 1270.09L1107.85 26.21" stroke="#53B75F" stroke-width="3" stroke-miterlimit="10"/>
<path d="M421.7 1288.57L1139.85 44.6899" stroke="#53B75F" stroke-width="3" stroke-miterlimit="10"/>
<path d="M453.7 1307.05L1171.86 63.16" stroke="#53B75F" stroke-width="3" stroke-miterlimit="10"/>
<path d="M485.71 1325.53L1203.87 81.64" stroke="#53B75F" stroke-width="3" stroke-miterlimit="10"/>
<path d="M517.72 1344.01L1235.88 100.12" stroke="#53B75F" stroke-width="3" stroke-miterlimit="10"/>
<path d="M549.73 1362.49L1267.88 118.6" stroke="#53B75F" stroke-width="3" stroke-miterlimit="10"/>
<path d="M581.74 1380.96L1299.89 137.08" stroke="#53B75F" stroke-width="3" stroke-miterlimit="10"/>
<path d="M613.74 1399.44L1331.9 155.56" stroke="#53B75F" stroke-width="3" stroke-miterlimit="10"/>
<path d="M645.75 1417.92L1363.91 174.04" stroke="#53B75F" stroke-width="3" stroke-miterlimit="10"/>
<path d="M677.76 1436.4L1395.91 192.52" stroke="#53B75F" stroke-width="3" stroke-miterlimit="10"/>
<path d="M709.77 1454.88L1427.92 211" stroke="#53B75F" stroke-width="3" stroke-miterlimit="10"/>
<path d="M741.77 1473.36L1459.93 229.48" stroke="#53B75F" stroke-width="3" stroke-miterlimit="10"/>
</g>
</svg>
