<svg width="765" height="483" viewBox="0 0 765 483" fill="none" xmlns="http://www.w3.org/2000/svg">
<mask id="mask0_1_279" style="mask-type:luminance" maskUnits="userSpaceOnUse" x="0" y="0" width="765" height="483">
<path d="M651.25 0H113.39C50.7664 0 0 50.7664 0 113.39V369.01C0 431.634 50.7664 482.4 113.39 482.4H651.25C713.874 482.4 764.64 431.634 764.64 369.01V113.39C764.64 50.7664 713.874 0 651.25 0Z" fill="white"/>
</mask>
<g mask="url(#mask0_1_279)">
<path d="M-321.84 0.969971H1114.47" stroke="#53B75F" stroke-width="3" stroke-miterlimit="10"/>
<path d="M-321.84 37.9299H1114.47" stroke="#53B75F" stroke-width="3" stroke-miterlimit="10"/>
<path d="M-321.84 74.89H1114.47" stroke="#53B75F" stroke-width="3" stroke-miterlimit="10"/>
<path d="M-321.84 111.85H1114.47" stroke="#53B75F" stroke-width="3" stroke-miterlimit="10"/>
<path d="M-321.84 148.81H1114.47" stroke="#53B75F" stroke-width="3" stroke-miterlimit="10"/>
<path d="M-321.84 185.77H1114.47" stroke="#53B75F" stroke-width="3" stroke-miterlimit="10"/>
<path d="M-321.84 222.72H1114.47" stroke="#53B75F" stroke-width="3" stroke-miterlimit="10"/>
<path d="M-321.84 259.68H1114.47" stroke="#53B75F" stroke-width="3" stroke-miterlimit="10"/>
<path d="M-321.84 296.64H1114.47" stroke="#53B75F" stroke-width="3" stroke-miterlimit="10"/>
<path d="M-321.84 333.6H1114.47" stroke="#53B75F" stroke-width="3" stroke-miterlimit="10"/>
<path d="M-321.84 370.56H1114.47" stroke="#53B75F" stroke-width="3" stroke-miterlimit="10"/>
<path d="M-321.84 407.52H1114.47" stroke="#53B75F" stroke-width="3" stroke-miterlimit="10"/>
<path d="M-321.84 444.48H1114.47" stroke="#53B75F" stroke-width="3" stroke-miterlimit="10"/>
<path d="M-321.84 481.44H1114.47" stroke="#53B75F" stroke-width="3" stroke-miterlimit="10"/>
<path d="M741.4 -584.01L1459.56 659.87" stroke="#53B75F" stroke-width="3" stroke-miterlimit="10"/>
<path d="M709.4 -565.53L1427.55 678.35" stroke="#53B75F" stroke-width="3" stroke-miterlimit="10"/>
<path d="M677.39 -547.05L1395.54 696.83" stroke="#53B75F" stroke-width="3" stroke-miterlimit="10"/>
<path d="M645.38 -528.57L1363.54 715.31" stroke="#53B75F" stroke-width="3" stroke-miterlimit="10"/>
<path d="M613.37 -510.09L1331.53 733.79" stroke="#53B75F" stroke-width="3" stroke-miterlimit="10"/>
<path d="M581.37 -491.61L1299.52 752.27" stroke="#53B75F" stroke-width="3" stroke-miterlimit="10"/>
<path d="M549.36 -473.13L1267.51 770.75" stroke="#53B75F" stroke-width="3" stroke-miterlimit="10"/>
<path d="M517.35 -454.65L1235.51 789.23" stroke="#53B75F" stroke-width="3" stroke-miterlimit="10"/>
<path d="M485.34 -436.18L1203.5 807.71" stroke="#53B75F" stroke-width="3" stroke-miterlimit="10"/>
<path d="M453.33 -417.7L1171.49 826.19" stroke="#53B75F" stroke-width="3" stroke-miterlimit="10"/>
<path d="M421.33 -399.22L1139.48 844.67" stroke="#53B75F" stroke-width="3" stroke-miterlimit="10"/>
<path d="M389.32 -380.74L1107.48 863.15" stroke="#53B75F" stroke-width="3" stroke-miterlimit="10"/>
<path d="M357.31 -362.26L1075.47 881.62" stroke="#53B75F" stroke-width="3" stroke-miterlimit="10"/>
<path d="M325.3 -343.78L1043.46 900.1" stroke="#53B75F" stroke-width="3" stroke-miterlimit="10"/>
<path d="M293.3 -325.3L1011.45 918.58" stroke="#53B75F" stroke-width="3" stroke-miterlimit="10"/>
<path d="M261.29 -306.82L979.44 937.06" stroke="#53B75F" stroke-width="3" stroke-miterlimit="10"/>
<path d="M229.28 -288.34L947.44 955.54" stroke="#53B75F" stroke-width="3" stroke-miterlimit="10"/>
<path d="M197.27 -269.86L915.43 974.02" stroke="#53B75F" stroke-width="3" stroke-miterlimit="10"/>
<path d="M165.27 -251.38L883.42 992.5" stroke="#53B75F" stroke-width="3" stroke-miterlimit="10"/>
<path d="M133.26 -232.9L851.41 1010.98" stroke="#53B75F" stroke-width="3" stroke-miterlimit="10"/>
<path d="M101.25 -214.42L819.41 1029.46" stroke="#53B75F" stroke-width="3" stroke-miterlimit="10"/>
<path d="M69.24 -195.94L787.4 1047.94" stroke="#53B75F" stroke-width="3" stroke-miterlimit="10"/>
<path d="M37.24 -177.46L755.39 1066.42" stroke="#53B75F" stroke-width="3" stroke-miterlimit="10"/>
<path d="M5.22998 -158.98L723.38 1084.9" stroke="#53B75F" stroke-width="3" stroke-miterlimit="10"/>
<path d="M-26.78 -140.5L691.38 1103.38" stroke="#53B75F" stroke-width="3" stroke-miterlimit="10"/>
<path d="M-58.79 -122.02L659.37 1121.86" stroke="#53B75F" stroke-width="3" stroke-miterlimit="10"/>
<path d="M-90.8 -103.54L627.36 1140.34" stroke="#53B75F" stroke-width="3" stroke-miterlimit="10"/>
<path d="M-122.8 -85.06L595.35 1158.82" stroke="#53B75F" stroke-width="3" stroke-miterlimit="10"/>
<path d="M-154.81 -66.58L563.34 1177.3" stroke="#53B75F" stroke-width="3" stroke-miterlimit="10"/>
<path d="M-186.82 -48.1L531.34 1195.78" stroke="#53B75F" stroke-width="3" stroke-miterlimit="10"/>
<path d="M-218.83 -29.62L499.33 1214.26" stroke="#53B75F" stroke-width="3" stroke-miterlimit="10"/>
<path d="M-250.83 -11.14L467.32 1232.74" stroke="#53B75F" stroke-width="3" stroke-miterlimit="10"/>
<path d="M-282.84 7.33997L435.31 1251.22" stroke="#53B75F" stroke-width="3" stroke-miterlimit="10"/>
<path d="M-314.85 25.8199L403.31 1269.7" stroke="#53B75F" stroke-width="3" stroke-miterlimit="10"/>
<path d="M-346.86 44.2999L371.3 1288.18" stroke="#53B75F" stroke-width="3" stroke-miterlimit="10"/>
<path d="M-378.86 62.77L339.29 1306.66" stroke="#53B75F" stroke-width="3" stroke-miterlimit="10"/>
<path d="M-410.87 81.25L307.28 1325.14" stroke="#53B75F" stroke-width="3" stroke-miterlimit="10"/>
<path d="M-442.88 99.73L275.28 1343.62" stroke="#53B75F" stroke-width="3" stroke-miterlimit="10"/>
<path d="M-474.89 118.21L243.27 1362.1" stroke="#53B75F" stroke-width="3" stroke-miterlimit="10"/>
<path d="M-506.89 136.69L211.26 1380.57" stroke="#53B75F" stroke-width="3" stroke-miterlimit="10"/>
<path d="M-538.9 155.17L179.25 1399.05" stroke="#53B75F" stroke-width="3" stroke-miterlimit="10"/>
<path d="M-570.91 173.65L147.25 1417.53" stroke="#53B75F" stroke-width="3" stroke-miterlimit="10"/>
<path d="M-602.92 192.13L115.24 1436.01" stroke="#53B75F" stroke-width="3" stroke-miterlimit="10"/>
<path d="M-634.93 210.61L83.23 1454.49" stroke="#53B75F" stroke-width="3" stroke-miterlimit="10"/>
<path d="M-666.93 229.09L51.22 1472.97" stroke="#53B75F" stroke-width="3" stroke-miterlimit="10"/>
<path d="M-698.94 247.57L19.21 1491.45" stroke="#53B75F" stroke-width="3" stroke-miterlimit="10"/>
<path d="M-698.94 641.39L19.21 -602.49" stroke="#53B75F" stroke-width="3" stroke-miterlimit="10"/>
<path d="M-666.93 659.87L51.22 -584.01" stroke="#53B75F" stroke-width="3" stroke-miterlimit="10"/>
<path d="M-634.93 678.35L83.23 -565.53" stroke="#53B75F" stroke-width="3" stroke-miterlimit="10"/>
<path d="M-602.92 696.83L115.24 -547.05" stroke="#53B75F" stroke-width="3" stroke-miterlimit="10"/>
<path d="M-570.91 715.31L147.25 -528.57" stroke="#53B75F" stroke-width="3" stroke-miterlimit="10"/>
<path d="M-538.9 733.79L179.25 -510.09" stroke="#53B75F" stroke-width="3" stroke-miterlimit="10"/>
<path d="M-506.89 752.27L211.26 -491.61" stroke="#53B75F" stroke-width="3" stroke-miterlimit="10"/>
<path d="M-474.89 770.75L243.27 -473.13" stroke="#53B75F" stroke-width="3" stroke-miterlimit="10"/>
<path d="M-442.88 789.23L275.28 -454.65" stroke="#53B75F" stroke-width="3" stroke-miterlimit="10"/>
<path d="M-410.87 807.71L307.28 -436.18" stroke="#53B75F" stroke-width="3" stroke-miterlimit="10"/>
<path d="M-378.86 826.19L339.29 -417.7" stroke="#53B75F" stroke-width="3" stroke-miterlimit="10"/>
<path d="M-346.86 844.67L371.3 -399.22" stroke="#53B75F" stroke-width="3" stroke-miterlimit="10"/>
<path d="M-314.85 863.15L403.31 -380.74" stroke="#53B75F" stroke-width="3" stroke-miterlimit="10"/>
<path d="M-282.84 881.62L435.31 -362.26" stroke="#53B75F" stroke-width="3" stroke-miterlimit="10"/>
<path d="M-250.83 900.1L467.32 -343.78" stroke="#53B75F" stroke-width="3" stroke-miterlimit="10"/>
<path d="M-218.83 918.58L499.33 -325.3" stroke="#53B75F" stroke-width="3" stroke-miterlimit="10"/>
<path d="M-186.82 937.06L531.34 -306.82" stroke="#53B75F" stroke-width="3" stroke-miterlimit="10"/>
<path d="M-154.81 955.54L563.34 -288.34" stroke="#53B75F" stroke-width="3" stroke-miterlimit="10"/>
<path d="M-122.8 974.02L595.35 -269.86" stroke="#53B75F" stroke-width="3" stroke-miterlimit="10"/>
<path d="M-90.8 992.5L627.36 -251.38" stroke="#53B75F" stroke-width="3" stroke-miterlimit="10"/>
<path d="M-58.79 1010.98L659.37 -232.9" stroke="#53B75F" stroke-width="3" stroke-miterlimit="10"/>
<path d="M-26.78 1029.46L691.38 -214.42" stroke="#53B75F" stroke-width="3" stroke-miterlimit="10"/>
<path d="M5.22998 1047.94L723.38 -195.94" stroke="#53B75F" stroke-width="3" stroke-miterlimit="10"/>
<path d="M37.24 1066.42L755.39 -177.46" stroke="#53B75F" stroke-width="3" stroke-miterlimit="10"/>
<path d="M69.24 1084.9L787.4 -158.98" stroke="#53B75F" stroke-width="3" stroke-miterlimit="10"/>
<path d="M101.25 1103.38L819.41 -140.5" stroke="#53B75F" stroke-width="3" stroke-miterlimit="10"/>
<path d="M133.26 1121.86L851.41 -122.02" stroke="#53B75F" stroke-width="3" stroke-miterlimit="10"/>
<path d="M165.27 1140.34L883.42 -103.54" stroke="#53B75F" stroke-width="3" stroke-miterlimit="10"/>
<path d="M197.27 1158.82L915.43 -85.06" stroke="#53B75F" stroke-width="3" stroke-miterlimit="10"/>
<path d="M229.28 1177.3L947.44 -66.58" stroke="#53B75F" stroke-width="3" stroke-miterlimit="10"/>
<path d="M261.29 1195.78L979.44 -48.1" stroke="#53B75F" stroke-width="3" stroke-miterlimit="10"/>
<path d="M293.3 1214.26L1011.45 -29.62" stroke="#53B75F" stroke-width="3" stroke-miterlimit="10"/>
<path d="M325.3 1232.74L1043.46 -11.14" stroke="#53B75F" stroke-width="3" stroke-miterlimit="10"/>
<path d="M357.31 1251.22L1075.47 7.33997" stroke="#53B75F" stroke-width="3" stroke-miterlimit="10"/>
<path d="M389.32 1269.7L1107.48 25.8199" stroke="#53B75F" stroke-width="3" stroke-miterlimit="10"/>
<path d="M421.33 1288.18L1139.48 44.2999" stroke="#53B75F" stroke-width="3" stroke-miterlimit="10"/>
<path d="M453.33 1306.66L1171.49 62.77" stroke="#53B75F" stroke-width="3" stroke-miterlimit="10"/>
<path d="M485.34 1325.14L1203.5 81.25" stroke="#53B75F" stroke-width="3" stroke-miterlimit="10"/>
<path d="M517.35 1343.62L1235.51 99.73" stroke="#53B75F" stroke-width="3" stroke-miterlimit="10"/>
<path d="M549.36 1362.1L1267.51 118.21" stroke="#53B75F" stroke-width="3" stroke-miterlimit="10"/>
<path d="M581.37 1380.57L1299.52 136.69" stroke="#53B75F" stroke-width="3" stroke-miterlimit="10"/>
<path d="M613.37 1399.05L1331.53 155.17" stroke="#53B75F" stroke-width="3" stroke-miterlimit="10"/>
<path d="M645.38 1417.53L1363.54 173.65" stroke="#53B75F" stroke-width="3" stroke-miterlimit="10"/>
<path d="M677.39 1436.01L1395.54 192.13" stroke="#53B75F" stroke-width="3" stroke-miterlimit="10"/>
<path d="M709.4 1454.49L1427.55 210.61" stroke="#53B75F" stroke-width="3" stroke-miterlimit="10"/>
<path d="M741.4 1472.97L1459.56 229.09" stroke="#53B75F" stroke-width="3" stroke-miterlimit="10"/>
</g>
</svg>
