<svg width="779" height="528" viewBox="0 0 779 528" fill="none" xmlns="http://www.w3.org/2000/svg">
<g filter="url(#filter0_d_2002_1022)">
<g clip-path="url(#clip0_2002_1022)">
<path d="M35 188.214C35 134.584 35 107.769 45.4371 87.2852C54.6178 69.267 69.267 54.6178 87.2852 45.4371C107.769 35 134.584 35 188.214 35H561.364C614.994 35 641.809 35 662.293 45.4371C680.311 54.6178 694.961 69.267 704.141 87.2852C714.578 107.769 714.578 134.584 714.578 188.214V310.641C714.578 364.271 714.578 391.086 704.141 411.57C694.961 429.588 680.311 444.237 662.293 453.418C641.809 463.855 614.994 463.855 561.364 463.855H188.214C134.584 463.855 107.769 463.855 87.2852 453.418C69.267 444.237 54.6178 429.588 45.4371 411.57C35 391.086 35 364.271 35 310.641V188.214Z" fill="white" fill-opacity="0.01"/>
</g>
</g>
<defs>
<filter id="filter0_d_2002_1022" x="0" y="0" width="779" height="528" filterUnits="userSpaceOnUse" color-interpolation-filters="sRGB">
<feFlood flood-opacity="0" result="BackgroundImageFix"/>
<feColorMatrix in="SourceAlpha" type="matrix" values="0 0 0 0 0 0 0 0 0 0 0 0 0 0 0 0 0 0 127 0" result="hardAlpha"/>
<feOffset dx="15" dy="15"/>
<feGaussianBlur stdDeviation="25"/>
<feComposite in2="hardAlpha" operator="out"/>
<feColorMatrix type="matrix" values="0 0 0 0 0.595708 0 0 0 0 0.768976 0 0 0 0 1 0 0 0 1 0"/>
<feBlend mode="normal" in2="BackgroundImageFix" result="effect1_dropShadow_2002_1022"/>
<feBlend mode="normal" in="SourceGraphic" in2="effect1_dropShadow_2002_1022" result="shape"/>
</filter>
<clipPath id="clip0_2002_1022">
<rect x="35" y="35" width="679" height="428" rx="95.76" fill="white"/>
</clipPath>
</defs>
</svg>
