<svg width="679" height="428" viewBox="0 0 679 428" fill="none" xmlns="http://www.w3.org/2000/svg">
<g clip-path="url(#clip0_2002_257)">
<mask id="mask0_2002_257" style="mask-type:alpha" maskUnits="userSpaceOnUse" x="0" y="0" width="679" height="428">
<path d="M0 153.214C0 99.5841 0 72.7691 10.4371 52.2852C19.6178 34.267 34.267 19.6178 52.2852 10.4371C72.7691 0 99.5841 0 153.214 0H525.786C579.416 0 606.231 0 626.715 10.4371C644.733 19.6178 659.382 34.267 668.563 52.2852C679 72.7691 679 99.5841 679 153.214V274.786C679 328.416 679 355.231 668.563 375.715C659.382 393.733 644.733 408.382 626.715 417.563C606.231 428 579.416 428 525.786 428H153.214C99.5841 428 72.7691 428 52.2852 417.563C34.267 408.382 19.6178 393.733 10.4371 375.715C0 355.231 0 328.416 0 274.786V153.214Z" fill="url(#paint0_linear_2002_257)"/>
</mask>
<g mask="url(#mask0_2002_257)">
<path d="M0 153.214C0 99.5841 0 72.7691 10.4371 52.2852C19.6178 34.267 34.267 19.6178 52.2852 10.4371C72.7691 0 99.5841 0 153.214 0H525.786C579.416 0 606.231 0 626.715 10.4371C644.733 19.6178 659.382 34.267 668.563 52.2852C679 72.7691 679 99.5841 679 153.214V274.786C679 328.416 679 355.231 668.563 375.715C659.382 393.733 644.733 408.382 626.715 417.563C606.231 428 579.416 428 525.786 428H153.214C99.5841 428 72.7691 428 52.2852 417.563C34.267 408.382 19.6178 393.733 10.4371 375.715C0 355.231 0 328.416 0 274.786V153.214Z" fill="url(#paint1_linear_2002_257)"/>
<path d="M-312.068 29.1122H956.021" stroke="#EF3449" stroke-width="2" stroke-miterlimit="10"/>
<path d="M-312.068 62.5822H956.021" stroke="#EF3449" stroke-width="2" stroke-miterlimit="10"/>
<path d="M-312.068 96.0519H956.021" stroke="#EF3449" stroke-width="2" stroke-miterlimit="10"/>
<path d="M-312.068 129.522H956.021" stroke="#EF3449" stroke-width="2" stroke-miterlimit="10"/>
<path d="M-312.068 162.991H956.021" stroke="#EF3449" stroke-width="2" stroke-miterlimit="10"/>
<path d="M-312.068 196.461H956.021" stroke="#EF3449" stroke-width="2" stroke-miterlimit="10"/>
<path d="M-312.068 229.931H956.021" stroke="#EF3449" stroke-width="2" stroke-miterlimit="10"/>
<path d="M-312.068 263.401H956.021" stroke="#EF3449" stroke-width="2" stroke-miterlimit="10"/>
<path d="M-312.068 296.862H956.021" stroke="#EF3449" stroke-width="2" stroke-miterlimit="10"/>
<path d="M-312.068 330.332H956.021" stroke="#EF3449" stroke-width="2" stroke-miterlimit="10"/>
<path d="M-312.068 363.801H956.021" stroke="#EF3449" stroke-width="2" stroke-miterlimit="10"/>
<path d="M-312.068 397.271H956.021" stroke="#EF3449" stroke-width="2" stroke-miterlimit="10"/>
<path d="M651.785 -918.629L1285.83 207.79" stroke="#EF3449" stroke-width="2" stroke-miterlimit="10"/>
<path d="M623.524 -901.894L1257.57 224.525" stroke="#EF3449" stroke-width="2" stroke-miterlimit="10"/>
<path d="M595.271 -885.159L1229.31 241.26" stroke="#EF3449" stroke-width="2" stroke-miterlimit="10"/>
<path d="M567.01 -868.425L1201.05 257.995" stroke="#EF3449" stroke-width="2" stroke-miterlimit="10"/>
<path d="M538.749 -851.69L1172.8 274.729" stroke="#EF3449" stroke-width="2" stroke-miterlimit="10"/>
<path d="M510.488 -834.955L1144.54 291.464" stroke="#EF3449" stroke-width="2" stroke-miterlimit="10"/>
<path d="M482.237 -818.22L1116.28 308.199" stroke="#EF3449" stroke-width="2" stroke-miterlimit="10"/>
<path d="M453.975 -801.485L1088.02 324.934" stroke="#EF3449" stroke-width="2" stroke-miterlimit="10"/>
<path d="M425.714 -784.75L1059.76 341.669" stroke="#EF3449" stroke-width="2" stroke-miterlimit="10"/>
<path d="M397.453 -768.024L1031.5 358.404" stroke="#EF3449" stroke-width="2" stroke-miterlimit="10"/>
<path d="M369.192 -751.289L1003.24 375.139" stroke="#EF3449" stroke-width="2" stroke-miterlimit="10"/>
<path d="M340.94 -734.554L974.98 391.874" stroke="#EF3449" stroke-width="2" stroke-miterlimit="10"/>
<path d="M312.679 -717.819L946.728 408.609" stroke="#EF3449" stroke-width="2" stroke-miterlimit="10"/>
<path d="M284.418 -701.084L918.467 425.335" stroke="#EF3449" stroke-width="2" stroke-miterlimit="10"/>
<path d="M256.157 -684.349L890.206 442.07" stroke="#EF3449" stroke-width="2" stroke-miterlimit="10"/>
<path d="M227.905 -667.615L861.945 458.805" stroke="#EF3449" stroke-width="2" stroke-miterlimit="10"/>
<path d="M199.644 -650.88L833.684 475.539" stroke="#EF3449" stroke-width="2" stroke-miterlimit="10"/>
<path d="M171.383 -634.145L805.432 492.274" stroke="#EF3449" stroke-width="2" stroke-miterlimit="10"/>
<path d="M143.122 -617.41L777.171 509.009" stroke="#EF3449" stroke-width="2" stroke-miterlimit="10"/>
<path d="M114.87 -600.675L748.91 525.744" stroke="#EF3449" stroke-width="2" stroke-miterlimit="10"/>
<path d="M86.6091 -583.94L720.649 542.479" stroke="#EF3449" stroke-width="2" stroke-miterlimit="10"/>
<path d="M58.3479 -567.205L692.397 559.214" stroke="#EF3449" stroke-width="2" stroke-miterlimit="10"/>
<path d="M30.0869 -550.47L664.136 575.949" stroke="#EF3449" stroke-width="2" stroke-miterlimit="10"/>
<path d="M1.83472 -533.735L635.875 592.684" stroke="#EF3449" stroke-width="2" stroke-miterlimit="10"/>
<path d="M-26.4261 -517L607.614 609.419" stroke="#EF3449" stroke-width="2" stroke-miterlimit="10"/>
<path d="M-54.6871 -500.265L579.362 626.154" stroke="#EF3449" stroke-width="2" stroke-miterlimit="10"/>
<path d="M-82.9481 -483.53L551.101 642.889" stroke="#EF3449" stroke-width="2" stroke-miterlimit="10"/>
<path d="M-111.209 -466.796L522.84 659.623" stroke="#EF3449" stroke-width="2" stroke-miterlimit="10"/>
<path d="M-139.461 -450.061L494.579 676.358" stroke="#EF3449" stroke-width="2" stroke-miterlimit="10"/>
<path d="M-167.722 -433.326L466.318 693.093" stroke="#EF3449" stroke-width="2" stroke-miterlimit="10"/>
<path d="M-195.983 -416.591L438.066 709.828" stroke="#EF3449" stroke-width="2" stroke-miterlimit="10"/>
<path d="M-224.244 -399.856L409.805 726.563" stroke="#EF3449" stroke-width="2" stroke-miterlimit="10"/>
<path d="M-252.496 -383.121L381.544 743.298" stroke="#EF3449" stroke-width="2" stroke-miterlimit="10"/>
<path d="M-280.757 -366.386L353.283 760.033" stroke="#EF3449" stroke-width="2" stroke-miterlimit="10"/>
<path d="M-309.018 -349.651L325.031 776.768" stroke="#EF3449" stroke-width="2" stroke-miterlimit="10"/>
<path d="M-337.279 -332.916L296.77 793.503" stroke="#EF3449" stroke-width="2" stroke-miterlimit="10"/>
<path d="M-365.531 -316.19L268.509 810.238" stroke="#EF3449" stroke-width="2" stroke-miterlimit="10"/>
<path d="M-393.792 -299.456L240.248 826.973" stroke="#EF3449" stroke-width="2" stroke-miterlimit="10"/>
<path d="M-422.053 -282.721L211.996 843.708" stroke="#EF3449" stroke-width="2" stroke-miterlimit="10"/>
<path d="M-450.314 -265.986L183.735 860.443" stroke="#EF3449" stroke-width="2" stroke-miterlimit="10"/>
<path d="M-478.566 -249.251L155.474 877.168" stroke="#EF3449" stroke-width="2" stroke-miterlimit="10"/>
<path d="M-506.828 -232.516L127.213 893.903" stroke="#EF3449" stroke-width="2" stroke-miterlimit="10"/>
<path d="M-535.088 -215.781L98.9605 910.638" stroke="#EF3449" stroke-width="2" stroke-miterlimit="10"/>
<path d="M-563.349 -199.046L70.6994 927.373" stroke="#EF3449" stroke-width="2" stroke-miterlimit="10"/>
<path d="M-591.61 -182.311L42.4386 944.108" stroke="#EF3449" stroke-width="2" stroke-miterlimit="10"/>
<path d="M-619.863 -165.576L14.1775 960.843" stroke="#EF3449" stroke-width="2" stroke-miterlimit="10"/>
<path d="M-619.863 224.525L14.1775 -901.894" stroke="#EF3449" stroke-width="2" stroke-miterlimit="10"/>
<path d="M-591.61 241.26L42.4386 -885.159" stroke="#EF3449" stroke-width="2" stroke-miterlimit="10"/>
<path d="M-563.349 257.995L70.6994 -868.425" stroke="#EF3449" stroke-width="2" stroke-miterlimit="10"/>
<path d="M-535.088 274.729L98.9605 -851.69" stroke="#EF3449" stroke-width="2" stroke-miterlimit="10"/>
<path d="M-506.828 291.464L127.213 -834.955" stroke="#EF3449" stroke-width="2" stroke-miterlimit="10"/>
<path d="M-478.566 308.199L155.474 -818.22" stroke="#EF3449" stroke-width="2" stroke-miterlimit="10"/>
<path d="M-450.314 324.934L183.735 -801.485" stroke="#EF3449" stroke-width="2" stroke-miterlimit="10"/>
<path d="M-422.053 341.669L211.996 -784.75" stroke="#EF3449" stroke-width="2" stroke-miterlimit="10"/>
<path d="M-393.792 358.404L240.248 -768.024" stroke="#EF3449" stroke-width="2" stroke-miterlimit="10"/>
<path d="M-365.531 375.139L268.509 -751.289" stroke="#EF3449" stroke-width="2" stroke-miterlimit="10"/>
<path d="M-337.279 391.874L296.77 -734.554" stroke="#EF3449" stroke-width="2" stroke-miterlimit="10"/>
<path d="M-309.018 408.609L325.031 -717.819" stroke="#EF3449" stroke-width="2" stroke-miterlimit="10"/>
<path d="M-280.757 425.335L353.283 -701.084" stroke="#EF3449" stroke-width="2" stroke-miterlimit="10"/>
<path d="M-252.496 442.07L381.544 -684.349" stroke="#EF3449" stroke-width="2" stroke-miterlimit="10"/>
<path d="M-224.244 458.805L409.805 -667.615" stroke="#EF3449" stroke-width="2" stroke-miterlimit="10"/>
<path d="M-195.983 475.539L438.066 -650.88" stroke="#EF3449" stroke-width="2" stroke-miterlimit="10"/>
<path d="M-167.722 492.274L466.318 -634.145" stroke="#EF3449" stroke-width="2" stroke-miterlimit="10"/>
<path d="M-139.461 509.009L494.579 -617.41" stroke="#EF3449" stroke-width="2" stroke-miterlimit="10"/>
<path d="M-111.209 525.744L522.84 -600.675" stroke="#EF3449" stroke-width="2" stroke-miterlimit="10"/>
<path d="M-82.9481 542.479L551.101 -583.94" stroke="#EF3449" stroke-width="2" stroke-miterlimit="10"/>
<path d="M-54.6871 559.214L579.362 -567.205" stroke="#EF3449" stroke-width="2" stroke-miterlimit="10"/>
<path d="M-26.4261 575.949L607.614 -550.47" stroke="#EF3449" stroke-width="2" stroke-miterlimit="10"/>
<path d="M1.83472 592.684L635.875 -533.735" stroke="#EF3449" stroke-width="2" stroke-miterlimit="10"/>
<path d="M30.0869 609.419L664.136 -517" stroke="#EF3449" stroke-width="2" stroke-miterlimit="10"/>
<path d="M58.3479 626.154L692.397 -500.265" stroke="#EF3449" stroke-width="2" stroke-miterlimit="10"/>
<path d="M86.6091 642.889L720.649 -483.53" stroke="#EF3449" stroke-width="2" stroke-miterlimit="10"/>
<path d="M114.87 659.623L748.91 -466.796" stroke="#EF3449" stroke-width="2" stroke-miterlimit="10"/>
<path d="M143.122 676.358L777.171 -450.061" stroke="#EF3449" stroke-width="2" stroke-miterlimit="10"/>
<path d="M171.383 693.093L805.432 -433.326" stroke="#EF3449" stroke-width="2" stroke-miterlimit="10"/>
<path d="M199.644 709.828L833.684 -416.591" stroke="#EF3449" stroke-width="2" stroke-miterlimit="10"/>
<path d="M227.905 726.563L861.945 -399.856" stroke="#EF3449" stroke-width="2" stroke-miterlimit="10"/>
<path d="M256.157 743.298L890.206 -383.121" stroke="#EF3449" stroke-width="2" stroke-miterlimit="10"/>
<path d="M284.418 760.033L918.467 -366.386" stroke="#EF3449" stroke-width="2" stroke-miterlimit="10"/>
<path d="M312.679 776.768L946.728 -349.651" stroke="#EF3449" stroke-width="2" stroke-miterlimit="10"/>
<path d="M340.94 793.503L974.98 -332.916" stroke="#EF3449" stroke-width="2" stroke-miterlimit="10"/>
<path d="M369.192 810.238L1003.24 -316.19" stroke="#EF3449" stroke-width="2" stroke-miterlimit="10"/>
<path d="M397.453 826.973L1031.5 -299.456" stroke="#EF3449" stroke-width="2" stroke-miterlimit="10"/>
<path d="M425.714 843.708L1059.76 -282.721" stroke="#EF3449" stroke-width="2" stroke-miterlimit="10"/>
<path d="M453.975 860.443L1088.02 -265.986" stroke="#EF3449" stroke-width="2" stroke-miterlimit="10"/>
<path d="M482.237 877.168L1116.28 -249.251" stroke="#EF3449" stroke-width="2" stroke-miterlimit="10"/>
<path d="M510.488 893.903L1144.54 -232.516" stroke="#EF3449" stroke-width="2" stroke-miterlimit="10"/>
<path d="M538.749 910.638L1172.8 -215.781" stroke="#EF3449" stroke-width="2" stroke-miterlimit="10"/>
<path d="M567.01 927.373L1201.05 -199.046" stroke="#EF3449" stroke-width="2" stroke-miterlimit="10"/>
<path d="M595.271 944.108L1229.31 -182.311" stroke="#EF3449" stroke-width="2" stroke-miterlimit="10"/>
<path d="M623.524 960.843L1257.57 -165.576" stroke="#EF3449" stroke-width="2" stroke-miterlimit="10"/>
<path d="M651.785 977.578L1285.83 -148.841" stroke="#EF3449" stroke-width="2" stroke-miterlimit="10"/>
</g>
<g filter="url(#filter0_d_2002_257)">
<path fill-rule="evenodd" clip-rule="evenodd" d="M216.215 381.43C308.565 381.43 383.43 306.565 383.43 214.215C383.43 121.865 308.565 47 216.215 47C123.865 47 49 121.865 49 214.215C49 306.565 123.865 381.43 216.215 381.43ZM217.004 330.424C281.039 330.424 332.95 278.513 332.95 214.478C332.95 150.443 281.039 98.5316 217.004 98.5316C152.968 98.5316 101.057 150.443 101.057 214.478C101.057 278.513 152.968 330.424 217.004 330.424Z" fill="url(#paint2_linear_2002_257)"/>
</g>
</g>
<defs>
<filter id="filter0_d_2002_257" x="-20.0314" y="-17.717" width="507.009" height="507.009" filterUnits="userSpaceOnUse" color-interpolation-filters="sRGB">
<feFlood flood-opacity="0" result="BackgroundImageFix"/>
<feColorMatrix in="SourceAlpha" type="matrix" values="0 0 0 0 0 0 0 0 0 0 0 0 0 0 0 0 0 0 127 0" result="hardAlpha"/>
<feOffset dx="17.2579" dy="21.5723"/>
<feGaussianBlur stdDeviation="43.1446"/>
<feComposite in2="hardAlpha" operator="out"/>
<feColorMatrix type="matrix" values="0 0 0 0 0.831373 0 0 0 0 0.0862745 0 0 0 0 0.152941 0 0 0 1 0"/>
<feBlend mode="normal" in2="BackgroundImageFix" result="effect1_dropShadow_2002_257"/>
<feBlend mode="normal" in="SourceGraphic" in2="effect1_dropShadow_2002_257" result="shape"/>
</filter>
<linearGradient id="paint0_linear_2002_257" x1="302.5" y1="214" x2="679" y2="214.257" gradientUnits="userSpaceOnUse">
<stop stop-color="#EF3449"/>
<stop offset="1" stop-color="#F77584"/>
</linearGradient>
<linearGradient id="paint1_linear_2002_257" x1="304.5" y1="214" x2="679" y2="214.257" gradientUnits="userSpaceOnUse">
<stop stop-color="#EF3449"/>
<stop offset="1" stop-color="#F77584"/>
</linearGradient>
<linearGradient id="paint2_linear_2002_257" x1="76.3433" y1="288.357" x2="319.541" y2="136.918" gradientUnits="userSpaceOnUse">
<stop stop-color="#FFC8CE"/>
<stop offset="1" stop-color="#F77584"/>
</linearGradient>
<clipPath id="clip0_2002_257">
<rect width="679" height="428" rx="95.76" fill="white"/>
</clipPath>
</defs>
</svg>
