<svg width="779" height="528" viewBox="0 0 779 528" fill="none" xmlns="http://www.w3.org/2000/svg">
<g filter="url(#filter0_d_2001_506)">
<g clip-path="url(#clip0_2001_506)">
<mask id="mask0_2001_506" style="mask-type:alpha" maskUnits="userSpaceOnUse" x="35" y="35" width="679" height="428">
<path d="M35 188.214C35 134.584 35 107.769 45.4371 87.2852C54.6178 69.267 69.267 54.6178 87.2852 45.4371C107.769 35 134.584 35 188.214 35H560.786C614.416 35 641.231 35 661.715 45.4371C679.733 54.6178 694.382 69.267 703.563 87.2852C714 107.769 714 134.584 714 188.214V309.786C714 363.416 714 390.231 703.563 410.715C694.382 428.733 679.733 443.382 661.715 452.563C641.231 463 614.416 463 560.786 463H188.214C134.584 463 107.769 463 87.2852 452.563C69.267 443.382 54.6178 428.733 45.4371 410.715C35 390.231 35 363.416 35 309.786V188.214Z" fill="url(#paint0_linear_2001_506)"/>
</mask>
<g mask="url(#mask0_2001_506)">
<path d="M35 188.214C35 134.584 35 107.769 45.4371 87.2852C54.6178 69.267 69.267 54.6178 87.2852 45.4371C107.769 35 134.584 35 188.214 35H560.786C614.416 35 641.231 35 661.715 45.4371C679.733 54.6178 694.382 69.267 703.563 87.2852C714 107.769 714 134.584 714 188.214V309.786C714 363.416 714 390.231 703.563 410.715C694.382 428.733 679.733 443.382 661.715 452.563C641.231 463 614.416 463 560.786 463H188.214C134.584 463 107.769 463 87.2852 452.563C69.267 443.382 54.6178 428.733 45.4371 410.715C35 390.231 35 363.416 35 309.786V188.214Z" fill="url(#paint1_linear_2001_506)"/>
<path d="M-277.068 64.1122H991.021" stroke="#EF3449" stroke-width="2" stroke-miterlimit="10"/>
<path d="M-277.068 97.5822H991.021" stroke="#EF3449" stroke-width="2" stroke-miterlimit="10"/>
<path d="M-277.068 131.052H991.021" stroke="#EF3449" stroke-width="2" stroke-miterlimit="10"/>
<path d="M-277.068 164.522H991.021" stroke="#EF3449" stroke-width="2" stroke-miterlimit="10"/>
<path d="M-277.068 197.991H991.021" stroke="#EF3449" stroke-width="2" stroke-miterlimit="10"/>
<path d="M-277.068 231.461H991.021" stroke="#EF3449" stroke-width="2" stroke-miterlimit="10"/>
<path d="M-277.068 264.931H991.021" stroke="#EF3449" stroke-width="2" stroke-miterlimit="10"/>
<path d="M-277.068 298.401H991.021" stroke="#EF3449" stroke-width="2" stroke-miterlimit="10"/>
<path d="M-277.068 331.862H991.021" stroke="#EF3449" stroke-width="2" stroke-miterlimit="10"/>
<path d="M-277.068 365.332H991.021" stroke="#EF3449" stroke-width="2" stroke-miterlimit="10"/>
<path d="M-277.068 398.801H991.021" stroke="#EF3449" stroke-width="2" stroke-miterlimit="10"/>
<path d="M-277.068 432.271H991.021" stroke="#EF3449" stroke-width="2" stroke-miterlimit="10"/>
<path d="M686.785 -883.629L1320.83 242.79" stroke="#EF3449" stroke-width="2" stroke-miterlimit="10"/>
<path d="M658.524 -866.894L1292.57 259.525" stroke="#EF3449" stroke-width="2" stroke-miterlimit="10"/>
<path d="M630.271 -850.159L1264.31 276.26" stroke="#EF3449" stroke-width="2" stroke-miterlimit="10"/>
<path d="M602.01 -833.425L1236.05 292.994" stroke="#EF3449" stroke-width="2" stroke-miterlimit="10"/>
<path d="M573.749 -816.69L1207.8 309.729" stroke="#EF3449" stroke-width="2" stroke-miterlimit="10"/>
<path d="M545.488 -799.955L1179.54 326.464" stroke="#EF3449" stroke-width="2" stroke-miterlimit="10"/>
<path d="M517.237 -783.22L1151.28 343.199" stroke="#EF3449" stroke-width="2" stroke-miterlimit="10"/>
<path d="M488.975 -766.485L1123.02 359.934" stroke="#EF3449" stroke-width="2" stroke-miterlimit="10"/>
<path d="M460.714 -749.75L1094.76 376.669" stroke="#EF3449" stroke-width="2" stroke-miterlimit="10"/>
<path d="M432.453 -733.024L1066.5 393.404" stroke="#EF3449" stroke-width="2" stroke-miterlimit="10"/>
<path d="M404.192 -716.289L1038.24 410.139" stroke="#EF3449" stroke-width="2" stroke-miterlimit="10"/>
<path d="M375.94 -699.554L1009.98 426.874" stroke="#EF3449" stroke-width="2" stroke-miterlimit="10"/>
<path d="M347.679 -682.819L981.728 443.609" stroke="#EF3449" stroke-width="2" stroke-miterlimit="10"/>
<path d="M319.418 -666.084L953.467 460.335" stroke="#EF3449" stroke-width="2" stroke-miterlimit="10"/>
<path d="M291.157 -649.349L925.206 477.07" stroke="#EF3449" stroke-width="2" stroke-miterlimit="10"/>
<path d="M262.905 -632.615L896.945 493.805" stroke="#EF3449" stroke-width="2" stroke-miterlimit="10"/>
<path d="M234.644 -615.88L868.684 510.539" stroke="#EF3449" stroke-width="2" stroke-miterlimit="10"/>
<path d="M206.383 -599.145L840.432 527.274" stroke="#EF3449" stroke-width="2" stroke-miterlimit="10"/>
<path d="M178.122 -582.41L812.171 544.009" stroke="#EF3449" stroke-width="2" stroke-miterlimit="10"/>
<path d="M149.87 -565.675L783.91 560.744" stroke="#EF3449" stroke-width="2" stroke-miterlimit="10"/>
<path d="M121.609 -548.94L755.649 577.479" stroke="#EF3449" stroke-width="2" stroke-miterlimit="10"/>
<path d="M93.3479 -532.205L727.397 594.214" stroke="#EF3449" stroke-width="2" stroke-miterlimit="10"/>
<path d="M65.0869 -515.47L699.136 610.949" stroke="#EF3449" stroke-width="2" stroke-miterlimit="10"/>
<path d="M36.8347 -498.735L670.875 627.684" stroke="#EF3449" stroke-width="2" stroke-miterlimit="10"/>
<path d="M8.57385 -482L642.614 644.419" stroke="#EF3449" stroke-width="2" stroke-miterlimit="10"/>
<path d="M-19.6871 -465.265L614.362 661.154" stroke="#EF3449" stroke-width="2" stroke-miterlimit="10"/>
<path d="M-47.9481 -448.531L586.101 677.889" stroke="#EF3449" stroke-width="2" stroke-miterlimit="10"/>
<path d="M-76.2091 -431.796L557.84 694.623" stroke="#EF3449" stroke-width="2" stroke-miterlimit="10"/>
<path d="M-104.461 -415.061L529.579 711.358" stroke="#EF3449" stroke-width="2" stroke-miterlimit="10"/>
<path d="M-132.722 -398.326L501.318 728.093" stroke="#EF3449" stroke-width="2" stroke-miterlimit="10"/>
<path d="M-160.983 -381.591L473.066 744.828" stroke="#EF3449" stroke-width="2" stroke-miterlimit="10"/>
<path d="M-189.244 -364.856L444.805 761.563" stroke="#EF3449" stroke-width="2" stroke-miterlimit="10"/>
<path d="M-217.496 -348.121L416.544 778.298" stroke="#EF3449" stroke-width="2" stroke-miterlimit="10"/>
<path d="M-245.757 -331.386L388.283 795.033" stroke="#EF3449" stroke-width="2" stroke-miterlimit="10"/>
<path d="M-274.018 -314.651L360.031 811.768" stroke="#EF3449" stroke-width="2" stroke-miterlimit="10"/>
<path d="M-302.279 -297.916L331.77 828.503" stroke="#EF3449" stroke-width="2" stroke-miterlimit="10"/>
<path d="M-330.531 -281.19L303.509 845.238" stroke="#EF3449" stroke-width="2" stroke-miterlimit="10"/>
<path d="M-358.792 -264.456L275.248 861.973" stroke="#EF3449" stroke-width="2" stroke-miterlimit="10"/>
<path d="M-387.053 -247.721L246.996 878.708" stroke="#EF3449" stroke-width="2" stroke-miterlimit="10"/>
<path d="M-415.314 -230.986L218.735 895.443" stroke="#EF3449" stroke-width="2" stroke-miterlimit="10"/>
<path d="M-443.566 -214.251L190.474 912.168" stroke="#EF3449" stroke-width="2" stroke-miterlimit="10"/>
<path d="M-471.828 -197.516L162.213 928.903" stroke="#EF3449" stroke-width="2" stroke-miterlimit="10"/>
<path d="M-500.088 -180.781L133.961 945.638" stroke="#EF3449" stroke-width="2" stroke-miterlimit="10"/>
<path d="M-528.349 -164.046L105.699 962.373" stroke="#EF3449" stroke-width="2" stroke-miterlimit="10"/>
<path d="M-556.61 -147.311L77.4386 979.108" stroke="#EF3449" stroke-width="2" stroke-miterlimit="10"/>
<path d="M-584.863 -130.576L49.1775 995.843" stroke="#EF3449" stroke-width="2" stroke-miterlimit="10"/>
<path d="M-584.863 259.525L49.1775 -866.894" stroke="#EF3449" stroke-width="2" stroke-miterlimit="10"/>
<path d="M-556.61 276.26L77.4386 -850.159" stroke="#EF3449" stroke-width="2" stroke-miterlimit="10"/>
<path d="M-528.349 292.994L105.699 -833.425" stroke="#EF3449" stroke-width="2" stroke-miterlimit="10"/>
<path d="M-500.088 309.729L133.961 -816.69" stroke="#EF3449" stroke-width="2" stroke-miterlimit="10"/>
<path d="M-471.828 326.464L162.213 -799.955" stroke="#EF3449" stroke-width="2" stroke-miterlimit="10"/>
<path d="M-443.566 343.199L190.474 -783.22" stroke="#EF3449" stroke-width="2" stroke-miterlimit="10"/>
<path d="M-415.314 359.934L218.735 -766.485" stroke="#EF3449" stroke-width="2" stroke-miterlimit="10"/>
<path d="M-387.053 376.669L246.996 -749.75" stroke="#EF3449" stroke-width="2" stroke-miterlimit="10"/>
<path d="M-358.792 393.404L275.248 -733.024" stroke="#EF3449" stroke-width="2" stroke-miterlimit="10"/>
<path d="M-330.531 410.139L303.509 -716.289" stroke="#EF3449" stroke-width="2" stroke-miterlimit="10"/>
<path d="M-302.279 426.874L331.77 -699.554" stroke="#EF3449" stroke-width="2" stroke-miterlimit="10"/>
<path d="M-274.018 443.609L360.031 -682.819" stroke="#EF3449" stroke-width="2" stroke-miterlimit="10"/>
<path d="M-245.757 460.335L388.283 -666.084" stroke="#EF3449" stroke-width="2" stroke-miterlimit="10"/>
<path d="M-217.496 477.07L416.544 -649.349" stroke="#EF3449" stroke-width="2" stroke-miterlimit="10"/>
<path d="M-189.244 493.805L444.805 -632.615" stroke="#EF3449" stroke-width="2" stroke-miterlimit="10"/>
<path d="M-160.983 510.539L473.066 -615.88" stroke="#EF3449" stroke-width="2" stroke-miterlimit="10"/>
<path d="M-132.722 527.274L501.318 -599.145" stroke="#EF3449" stroke-width="2" stroke-miterlimit="10"/>
<path d="M-104.461 544.009L529.579 -582.41" stroke="#EF3449" stroke-width="2" stroke-miterlimit="10"/>
<path d="M-76.2091 560.744L557.84 -565.675" stroke="#EF3449" stroke-width="2" stroke-miterlimit="10"/>
<path d="M-47.9481 577.479L586.101 -548.94" stroke="#EF3449" stroke-width="2" stroke-miterlimit="10"/>
<path d="M-19.6871 594.214L614.362 -532.205" stroke="#EF3449" stroke-width="2" stroke-miterlimit="10"/>
<path d="M8.57385 610.949L642.614 -515.47" stroke="#EF3449" stroke-width="2" stroke-miterlimit="10"/>
<path d="M36.8347 627.684L670.875 -498.735" stroke="#EF3449" stroke-width="2" stroke-miterlimit="10"/>
<path d="M65.0869 644.419L699.136 -482" stroke="#EF3449" stroke-width="2" stroke-miterlimit="10"/>
<path d="M93.3479 661.154L727.397 -465.265" stroke="#EF3449" stroke-width="2" stroke-miterlimit="10"/>
<path d="M121.609 677.889L755.649 -448.531" stroke="#EF3449" stroke-width="2" stroke-miterlimit="10"/>
<path d="M149.87 694.623L783.91 -431.796" stroke="#EF3449" stroke-width="2" stroke-miterlimit="10"/>
<path d="M178.122 711.358L812.171 -415.061" stroke="#EF3449" stroke-width="2" stroke-miterlimit="10"/>
<path d="M206.383 728.093L840.432 -398.326" stroke="#EF3449" stroke-width="2" stroke-miterlimit="10"/>
<path d="M234.644 744.828L868.684 -381.591" stroke="#EF3449" stroke-width="2" stroke-miterlimit="10"/>
<path d="M262.905 761.563L896.945 -364.856" stroke="#EF3449" stroke-width="2" stroke-miterlimit="10"/>
<path d="M291.157 778.298L925.206 -348.121" stroke="#EF3449" stroke-width="2" stroke-miterlimit="10"/>
<path d="M319.418 795.033L953.467 -331.386" stroke="#EF3449" stroke-width="2" stroke-miterlimit="10"/>
<path d="M347.679 811.768L981.728 -314.651" stroke="#EF3449" stroke-width="2" stroke-miterlimit="10"/>
<path d="M375.94 828.503L1009.98 -297.916" stroke="#EF3449" stroke-width="2" stroke-miterlimit="10"/>
<path d="M404.192 845.238L1038.24 -281.19" stroke="#EF3449" stroke-width="2" stroke-miterlimit="10"/>
<path d="M432.453 861.973L1066.5 -264.456" stroke="#EF3449" stroke-width="2" stroke-miterlimit="10"/>
<path d="M460.714 878.708L1094.76 -247.721" stroke="#EF3449" stroke-width="2" stroke-miterlimit="10"/>
<path d="M488.975 895.443L1123.02 -230.986" stroke="#EF3449" stroke-width="2" stroke-miterlimit="10"/>
<path d="M517.237 912.168L1151.28 -214.251" stroke="#EF3449" stroke-width="2" stroke-miterlimit="10"/>
<path d="M545.488 928.903L1179.54 -197.516" stroke="#EF3449" stroke-width="2" stroke-miterlimit="10"/>
<path d="M573.749 945.638L1207.8 -180.781" stroke="#EF3449" stroke-width="2" stroke-miterlimit="10"/>
<path d="M602.01 962.373L1236.05 -164.046" stroke="#EF3449" stroke-width="2" stroke-miterlimit="10"/>
<path d="M630.271 979.108L1264.31 -147.311" stroke="#EF3449" stroke-width="2" stroke-miterlimit="10"/>
<path d="M658.524 995.843L1292.57 -130.576" stroke="#EF3449" stroke-width="2" stroke-miterlimit="10"/>
<path d="M686.785 1012.58L1320.83 -113.841" stroke="#EF3449" stroke-width="2" stroke-miterlimit="10"/>
</g>
<g filter="url(#filter1_d_2001_506)">
<path fill-rule="evenodd" clip-rule="evenodd" d="M251.215 416.43C343.565 416.43 418.43 341.565 418.43 249.215C418.43 156.865 343.565 82 251.215 82C158.865 82 84 156.865 84 249.215C84 341.565 158.865 416.43 251.215 416.43ZM252.004 365.424C316.039 365.424 367.95 313.513 367.95 249.478C367.95 185.443 316.039 133.532 252.004 133.532C187.968 133.532 136.057 185.443 136.057 249.478C136.057 313.513 187.968 365.424 252.004 365.424Z" fill="url(#paint2_linear_2001_506)"/>
</g>
</g>
</g>
<defs>
<filter id="filter0_d_2001_506" x="0" y="0" width="779" height="528" filterUnits="userSpaceOnUse" color-interpolation-filters="sRGB">
<feFlood flood-opacity="0" result="BackgroundImageFix"/>
<feColorMatrix in="SourceAlpha" type="matrix" values="0 0 0 0 0 0 0 0 0 0 0 0 0 0 0 0 0 0 127 0" result="hardAlpha"/>
<feOffset dx="15" dy="15"/>
<feGaussianBlur stdDeviation="25"/>
<feComposite in2="hardAlpha" operator="out"/>
<feColorMatrix type="matrix" values="0 0 0 0 0.595708 0 0 0 0 0.768976 0 0 0 0 1 0 0 0 1 0"/>
<feBlend mode="normal" in2="BackgroundImageFix" result="effect1_dropShadow_2001_506"/>
<feBlend mode="normal" in="SourceGraphic" in2="effect1_dropShadow_2001_506" result="shape"/>
</filter>
<filter id="filter1_d_2001_506" x="14.9686" y="17.283" width="507.009" height="507.009" filterUnits="userSpaceOnUse" color-interpolation-filters="sRGB">
<feFlood flood-opacity="0" result="BackgroundImageFix"/>
<feColorMatrix in="SourceAlpha" type="matrix" values="0 0 0 0 0 0 0 0 0 0 0 0 0 0 0 0 0 0 127 0" result="hardAlpha"/>
<feOffset dx="17.2579" dy="21.5723"/>
<feGaussianBlur stdDeviation="43.1446"/>
<feComposite in2="hardAlpha" operator="out"/>
<feColorMatrix type="matrix" values="0 0 0 0 0.831373 0 0 0 0 0.0862745 0 0 0 0 0.152941 0 0 0 1 0"/>
<feBlend mode="normal" in2="BackgroundImageFix" result="effect1_dropShadow_2001_506"/>
<feBlend mode="normal" in="SourceGraphic" in2="effect1_dropShadow_2001_506" result="shape"/>
</filter>
<linearGradient id="paint0_linear_2001_506" x1="337.5" y1="249" x2="714" y2="249.257" gradientUnits="userSpaceOnUse">
<stop stop-color="#EF3449"/>
<stop offset="1" stop-color="#F77584"/>
</linearGradient>
<linearGradient id="paint1_linear_2001_506" x1="339.5" y1="249" x2="714" y2="249.257" gradientUnits="userSpaceOnUse">
<stop stop-color="#EF3449"/>
<stop offset="1" stop-color="#F77584"/>
</linearGradient>
<linearGradient id="paint2_linear_2001_506" x1="111.343" y1="323.357" x2="354.541" y2="171.918" gradientUnits="userSpaceOnUse">
<stop stop-color="#FFC8CE"/>
<stop offset="1" stop-color="#F77584"/>
</linearGradient>
<clipPath id="clip0_2001_506">
<rect x="35" y="35" width="679" height="428" rx="95.76" fill="white"/>
</clipPath>
</defs>
</svg>
