<svg width="57" height="42" viewBox="0 0 57 42" fill="none" xmlns="http://www.w3.org/2000/svg">
<path d="M39.3419 4.27804H22.784L14.5016 18.6194L22.784 32.9608H39.3419L47.6174 18.6194L39.3419 4.27804Z" fill="#6CACE4"/>
<path d="M36.5287 27.965L25.5017 27.9789L20.1515 18.7306L25.7032 9.08632H36.5704L41.9207 18.5639L36.5287 27.965Z" fill="#003274"/>
<path d="M29.7124 16.2498H26.9817L25.6129 13.8874L26.9817 11.518H29.7124L31.0812 13.8874L29.7124 16.2498Z" fill="#6CACE4"/>
<path d="M50.5224 30.4454C47.7778 34.6491 44.8942 36.421 43.1085 37.3937C42.3511 37.8037 39.1966 39.4643 34.5134 40.2078C32.818 40.4788 25.7723 41.4446 18.0527 38.3109C7.8734 34.1836 2.95397 24.2127 1.25163 20.3077C1.07097 19.8908 0.987592 19.4392 1.00149 19.0014C1.01539 18.5637 1.12656 18.119 1.33501 17.7091C3.24581 14.0125 9.22833 5.47996 19.9774 2.12391C22.6942 1.27622 30.1012 0.303447 38.7519 1.71396C39.8983 1.90157 49.0771 4.23621 54.5941 14.3877C55.9351 16.8475 56.0949 18.2302 56.1019 18.7235C56.1019 18.7791 56.0324 18.793 56.0115 18.7444C55.1708 16.9656 53.8993 14.353 51.4673 11.8516C49.9109 10.2535 48.5212 9.24597 47.479 8.49555C45.0401 6.74456 42.7333 5.71621 41.4409 5.22983C40.8503 5.00748 39.3981 4.61142 39.1062 4.54194C38.599 4.41687 38.3627 4.46551 36.6882 4.25011C35.6459 4.11809 34.8538 4.0903 34.2563 4.06945C33.4781 4.0486 33.1862 4.06945 30.8516 4.06945C30.1915 4.06945 29.99 4.06945 29.7815 4.06945C27.836 4.06945 25.6959 3.97217 23.7295 4.36128C21.9855 4.7087 20.7626 5.3271 19.3521 6.05668C15.732 7.93273 12.5427 11.2679 10.7292 13.1579C10.5694 13.3246 9.68692 14.2488 8.72805 15.6384C7.56073 17.3269 7.08824 17.9175 7.04655 18.9876C7.01181 19.8491 7.32448 20.9331 7.9012 22.1004C7.94289 22.1838 8.05406 22.4061 8.09575 22.4895C12.6678 31.6196 20.6653 35.4412 20.6653 35.4412C30.664 39.8465 43.5323 37.1088 49.3411 30.2161C51.9398 27.131 53.9132 22.1907 53.6213 23.2608C53.2392 24.6713 52.7111 27.0685 50.5085 30.4315L50.5224 30.4454Z" fill="#003274" stroke="#003274" stroke-miterlimit="10"/>
<path d="M40.0997 3.43724H22.3814V4.67404H40.0997V3.43724Z" fill="#003274" stroke="#003274" stroke-miterlimit="10"/>
</svg>
